<svg preserveAspectRatio="none" width="100%" height="100%" overflow="visible" style="display: block;" viewBox="0 0 14.6936 14.6335" fill="none" xmlns="http://www.w3.org/2000/svg">
<path id="Vector" d="M3.30013 13.3001C3.30013 12.5638 3.89708 11.9668 4.63346 11.9668C5.36978 11.9669 5.9668 12.5638 5.9668 13.3001C5.96673 14.0364 5.36974 14.6334 4.63346 14.6335C3.89713 14.6335 3.3002 14.0365 3.30013 13.3001ZM10.6335 13.3001C10.6335 12.5638 11.2304 11.9668 11.9668 11.9668C12.7031 11.9669 13.3001 12.5638 13.3001 13.3001C13.3001 14.0364 12.7031 14.6334 11.9668 14.6335C11.2305 14.6335 10.6335 14.0365 10.6335 13.3001ZM2 0L2.05859 0.00260417C2.34764 0.0279362 2.58998 0.239206 2.65169 0.527344L3.2526 3.33333H14.0267C14.2289 3.33334 14.4203 3.42498 14.5469 3.58268C14.6734 3.74038 14.7215 3.94717 14.6777 4.14453L13.5775 9.09766L13.5768 9.09701C13.4789 9.54132 13.2333 9.93927 12.8789 10.2246C12.5244 10.5101 12.0828 10.6659 11.6276 10.6667H5.10677V10.666C4.64682 10.6729 4.19843 10.5217 3.83724 10.2363C3.47223 9.94797 3.21934 9.54139 3.12174 9.08659L2.06576 4.1582C2.06236 4.14424 2.05914 4.13017 2.05664 4.11589L1.46094 1.33333H0.666667C0.298477 1.33333 0 1.03486 0 0.666667C0 0.298477 0.298477 0 0.666667 0H2ZM4.42513 8.80664C4.45766 8.95826 4.54238 9.09398 4.66406 9.1901C4.7857 9.28613 4.93686 9.33677 5.0918 9.33333H11.6257C11.7772 9.33308 11.9242 9.28119 12.0423 9.1862C12.1605 9.09105 12.2428 8.95807 12.2754 8.8099L12.276 8.80859L13.1953 4.66667H3.53841L4.42513 8.80664Z" fill="var(--fill-0, #EA580C)"/>
</svg>
