<svg preserveAspectRatio="none" width="100%" height="100%" overflow="visible" style="display: block;" viewBox="0 0 14.6667 13.3333" fill="none" xmlns="http://www.w3.org/2000/svg">
<path id="Vector" d="M13.3333 9.16862C11.6286 10.0765 9.73787 10.5891 7.80143 10.6602L7.33333 10.6686C5.23435 10.6686 3.1752 10.1495 1.33333 9.16862V11.3333C1.33333 11.7015 1.63181 12 2 12H12.6667C13.0349 12 13.3333 11.7015 13.3333 11.3333V9.16862ZM7.33984 6.66667C7.70803 6.66667 8.00651 6.96514 8.00651 7.33333C8.00651 7.70152 7.70803 8 7.33984 8H7.33333C6.96514 8 6.66667 7.70152 6.66667 7.33333C6.66667 6.96514 6.96514 6.66667 7.33333 6.66667H7.33984ZM13.3333 4.66667C13.3333 4.29848 13.0349 4 12.6667 4H2C1.63181 4 1.33333 4.29848 1.33333 4.66667V7.63281C3.13526 8.74392 5.21175 9.33529 7.33333 9.33529L7.7526 9.32812C9.72783 9.25566 11.6503 8.67061 13.3333 7.63281V4.66667ZM9.33333 2C9.33333 1.82319 9.26305 1.65367 9.13802 1.52865C9.013 1.40362 8.84348 1.33333 8.66667 1.33333H6C5.82319 1.33333 5.65367 1.40362 5.52865 1.52865C5.40362 1.65367 5.33333 1.82319 5.33333 2V2.66667H9.33333V2ZM10.6667 2.66667H12.6667C13.7712 2.66667 14.6667 3.5621 14.6667 4.66667V11.3333C14.6667 12.4379 13.7712 13.3333 12.6667 13.3333H2C0.89543 13.3333 0 12.4379 0 11.3333V4.66667C0 3.5621 0.895431 2.66667 2 2.66667H4V2C4 1.46957 4.21087 0.96101 4.58594 0.585937C4.96101 0.210865 5.46957 0 6 0H8.66667C9.1971 0 9.70566 0.210865 10.0807 0.585937C10.4558 0.96101 10.6667 1.46957 10.6667 2V2.66667Z" fill="var(--fill-0, #16A34A)"/>
</svg>
