<svg preserveAspectRatio="none" width="100%" height="100%" overflow="visible" style="display: block;" viewBox="0 0 17.5 16.6667" fill="none" xmlns="http://www.w3.org/2000/svg">
<path id="Vector" d="M13.3333 9.16667C13.1123 9.16667 12.9004 9.25453 12.7441 9.41081C12.5879 9.56709 12.5 9.77899 12.5 10L12.5041 10.0822C12.523 10.273 12.6074 10.4524 12.7441 10.5892C12.9004 10.7455 13.1123 10.8333 13.3333 10.8333H15.8333V9.16667H13.3333ZM2.5 5C2.21298 5 1.93216 4.94753 1.66667 4.85352V14.1667C1.66667 14.3877 1.75453 14.5996 1.91081 14.7559C2.06709 14.9121 2.27899 15 2.5 15H15V12.5H13.3333C12.6703 12.5 12.0346 12.2364 11.5658 11.7676C11.1556 11.3574 10.9024 10.8196 10.8455 10.2474L10.8333 10C10.8333 9.33696 11.0969 8.70126 11.5658 8.23242C12.0346 7.76358 12.6703 7.5 13.3333 7.5H15V5H2.5ZM2.5 1.66667C2.27899 1.66667 2.06709 1.75453 1.91081 1.91081C1.75453 2.06709 1.66667 2.27899 1.66667 2.5L1.67074 2.58219C1.68964 2.77303 1.77402 2.95241 1.91081 3.08919C2.06709 3.24547 2.27899 3.33333 2.5 3.33333H13.3333V1.66667H2.5ZM15 3.33333C15.442 3.33333 15.8658 3.50905 16.1784 3.82161C16.4909 4.13418 16.6667 4.55797 16.6667 5V7.72461C16.7915 7.79676 16.908 7.88454 17.0117 7.98828C17.3243 8.30084 17.5 8.72464 17.5 9.16667V10.8333C17.5 11.2754 17.3243 11.6992 17.0117 12.0117C16.9081 12.1154 16.7914 12.2025 16.6667 12.2746V15C16.6667 15.442 16.4909 15.8658 16.1784 16.1784C15.8658 16.4909 15.442 16.6667 15 16.6667H2.5C1.83696 16.6667 1.20126 16.4031 0.732422 15.9342C0.263581 15.4654 0 14.8297 0 14.1667V2.5C0 1.83696 0.263581 1.20126 0.732422 0.732422C1.20126 0.263581 1.83696 0 2.5 0H13.3333C13.7754 0 14.1992 0.17572 14.5117 0.488281C14.8243 0.800843 15 1.22464 15 1.66667V3.33333Z" fill="var(--fill-0, #9333EA)"/>
</svg>
