<svg preserveAspectRatio="none" width="100%" height="100%" overflow="visible" style="display: block;" viewBox="0 0 13.4388 13.4462" fill="none" xmlns="http://www.w3.org/2000/svg">
<path id="Vector" d="M1.9993 6.77952V11.4462C1.99937 11.6229 2.06965 11.7926 2.19461 11.9175C2.31961 12.0424 2.48928 12.1129 2.66597 12.1129H10.666C10.8427 12.1128 11.0124 12.0425 11.1373 11.9175C11.2623 11.7926 11.3326 11.6229 11.3326 11.4462V6.77952H1.9993ZM7.9993 8.11285C8.36737 8.113 8.66597 8.41142 8.66597 8.77952C8.66582 9.14749 8.36728 9.44604 7.9993 9.44619H5.33263C4.96454 9.44619 4.66612 9.14758 4.66597 8.77952C4.66597 8.41133 4.96444 8.11285 5.33263 8.11285H7.9993ZM9.72586 1.33421L9.26688 2.38694C9.26787 2.38852 9.26915 2.38992 9.27013 2.3915C9.49629 2.75313 9.60115 3.17777 9.56896 3.60309C9.53697 4.02573 9.37054 4.42648 9.09565 4.74892L9.09631 4.74957L8.72847 5.18707L8.90164 5.44619H10.7688L12.1054 2.26455V2.26389L9.72586 1.33356V1.33421ZM4.0312 1.46051C3.90172 1.48727 3.78335 1.55237 3.69071 1.64671C3.60344 1.73556 3.54401 1.84709 3.51688 1.96832L3.42443 3.19554C3.40285 3.48282 3.19892 3.72412 2.91922 3.79319L1.79683 4.06988C1.66914 4.11073 1.55641 4.18932 1.47391 4.29514C1.3898 4.40313 1.34085 4.53474 1.33394 4.67145C1.32708 4.80813 1.3627 4.94358 1.4355 5.05947C1.50837 5.17543 1.61524 5.26612 1.74149 5.31923H1.74084L2.05073 5.44619H7.30529C7.18375 5.20984 7.212 4.92111 7.38602 4.71376L8.07482 3.8928L8.08003 3.88694C8.17271 3.77912 8.2288 3.64395 8.23953 3.50218C8.2502 3.3605 8.21526 3.21899 8.13993 3.09853C8.06454 2.97799 7.95243 2.88466 7.82026 2.83225C7.68811 2.77987 7.54239 2.77139 7.4049 2.80751C7.39221 2.81084 7.37935 2.8134 7.36649 2.81598L6.15295 3.05882C5.89732 3.10989 5.6353 3.00754 5.48237 2.79645L4.73237 1.75999C4.728 1.75394 4.72352 1.74795 4.71935 1.74176C4.64549 1.63201 4.5404 1.5463 4.41792 1.49632C4.29549 1.44639 4.1607 1.43379 4.0312 1.46051ZM12.666 11.4462C12.6659 11.9765 12.455 12.4852 12.08 12.8602C11.705 13.2353 11.1963 13.4461 10.666 13.4462H2.66597C2.13553 13.4462 1.62633 13.2353 1.25125 12.8602C0.876281 12.4852 0.66604 11.9765 0.665967 11.4462V6.78343C0.66542 6.60963 0.698721 6.43725 0.764274 6.27626V6.27561C0.585068 6.13463 0.429324 5.96439 0.306592 5.7691C0.0879311 5.42116 -0.018206 5.01416 0.00255547 4.60374C0.0233264 4.19344 0.169944 3.79952 0.422477 3.47548C0.675134 3.15138 1.02171 2.91282 1.41466 2.79254L1.44982 2.78277L2.13081 2.61415L2.19071 1.81793C2.19255 1.79347 2.19595 1.76912 2.20047 1.74501C2.27362 1.35495 2.46146 0.995617 2.73953 0.712462C3.0176 0.429343 3.37367 0.235366 3.76232 0.15517C4.15091 0.0750373 4.55447 0.112034 4.92183 0.261941C5.28206 0.408959 5.59101 0.658127 5.8118 0.978087L6.31115 1.66689L7.10477 1.50869C7.46022 1.42276 7.83162 1.43565 8.17899 1.5458L8.50321 0.801655C8.64072 0.48557 8.89523 0.23488 9.21349 0.102436C9.49224 -0.0135463 9.80105 -0.0312263 10.0891 0.0503527L10.2109 0.0913683L10.2115 0.0920193L12.5917 1.02301H12.5924C12.7578 1.08787 12.9085 1.18551 13.0358 1.30947C13.1631 1.4335 13.2647 1.58193 13.3339 1.74567C13.4031 1.90936 13.4385 2.08555 13.4388 2.26324C13.4389 2.44089 13.404 2.61701 13.3352 2.78082L12.1093 5.69749C12.1676 5.73937 12.2239 5.78474 12.2753 5.83616C12.5254 6.08621 12.666 6.4259 12.666 6.77952V11.4462Z" fill="var(--fill-0, #CA8A04)"/>
</svg>
