<svg preserveAspectRatio="none" width="100%" height="100%" overflow="visible" style="display: block;" viewBox="0 0 14.6667 12.6667" fill="none" xmlns="http://www.w3.org/2000/svg">
<path id="Vector" d="M12.6667 6C12.2985 6 12 5.70152 12 5.33333C12 4.91935 11.9039 4.51091 11.7188 4.14063C11.5336 3.77038 11.2647 3.44825 10.9336 3.19987C10.7657 3.07397 10.6667 2.8765 10.6667 2.66667V1.44792C10.589 1.47536 10.5128 1.50726 10.4388 1.54427C10.1611 1.68313 9.91937 1.88507 9.73307 2.13346L9.5332 2.39974C9.4073 2.56761 9.20984 2.66667 9 2.66667H6.66667C5.78261 2.66667 4.93502 3.01811 4.3099 3.64323C3.68477 4.26835 3.33333 5.11595 3.33333 6V6.66667C3.33333 7.08065 3.42944 7.48909 3.61458 7.85938C3.7997 8.22962 4.0686 8.55175 4.39974 8.80013C4.56761 8.92603 4.66667 9.1235 4.66667 9.33333V11.3333H6V10C6 9.63181 6.29848 9.33333 6.66667 9.33333H8.66667C9.03486 9.33333 9.33333 9.63181 9.33333 10V11.3333H10.6667V9.33333C10.6667 9.04629 10.8507 8.79119 11.123 8.70052C11.3352 8.62983 11.5281 8.51098 11.6862 8.35286C11.8443 8.19475 11.9632 8.00184 12.0339 7.78971L12.0755 7.69141C12.189 7.47387 12.4156 7.33333 12.6667 7.33333H13.3333V6H12.6667ZM10.0065 4.66667C10.3747 4.66667 10.6732 4.96514 10.6732 5.33333C10.6732 5.70152 10.3747 6 10.0065 6H10C9.63181 6 9.33333 5.70152 9.33333 5.33333C9.33333 4.96514 9.63181 4.66667 10 4.66667H10.0065ZM14.6667 7.33333C14.6667 7.68695 14.5261 8.02599 14.276 8.27604C14.026 8.52609 13.687 8.66667 13.3333 8.66667H13.0996C12.9736 8.89677 12.8156 9.10886 12.6289 9.29557C12.4423 9.48221 12.23 9.6396 12 9.76563V11.3333C12 11.687 11.8594 12.026 11.6094 12.276C11.3593 12.5261 11.0203 12.6667 10.6667 12.6667H9.33333C8.97971 12.6667 8.64067 12.5261 8.39063 12.276C8.14058 12.026 8 11.687 8 11.3333V10.6667H7.33333V11.3333C7.33333 11.687 7.19276 12.026 6.94271 12.276C6.69266 12.5261 6.35362 12.6667 6 12.6667H4.66667C4.31305 12.6667 3.97401 12.5261 3.72396 12.276C3.47391 12.026 3.33333 11.687 3.33333 11.3333V9.64583C2.95848 9.3103 2.64847 8.90754 2.42253 8.45573C2.14482 7.90031 2 7.28765 2 6.66667C1.46957 6.66667 0.96101 6.4558 0.585938 6.08073C0.210865 5.70566 0 5.1971 0 4.66667V4C0 3.63181 0.298477 3.33333 0.666667 3.33333C1.03486 3.33333 1.33333 3.63181 1.33333 4V4.66667L1.33659 4.73242C1.35172 4.88509 1.41922 5.02859 1.52865 5.13802C1.65367 5.26305 1.82319 5.33333 2 5.33333H2.04883C2.1919 4.34219 2.65008 3.41633 3.36654 2.69987C4.24171 1.8247 5.42899 1.33333 6.66667 1.33333H8.66667C8.9771 0.919424 9.37971 0.583635 9.84245 0.352214C10.3053 0.120788 10.8159 0 11.3333 0C11.7015 0 12 0.298477 12 0.666667V2.35352C12.375 2.6891 12.6848 3.09233 12.9108 3.54427C13.0883 3.89922 13.2109 4.27779 13.2767 4.66667H13.3333C13.687 4.66667 14.026 4.80724 14.276 5.05729C14.5261 5.30734 14.6667 5.64638 14.6667 6V7.33333Z" fill="var(--fill-0, #16A34A)"/>
</svg>
