<svg preserveAspectRatio="none" width="100%" height="100%" overflow="visible" style="display: block;" viewBox="0 0 13.3333 13.3333" fill="none" xmlns="http://www.w3.org/2000/svg">
<path id="Vector" d="M10.6667 6C10.6667 3.42267 8.57733 1.33333 6 1.33333C3.42267 1.33333 1.33333 3.42267 1.33333 6C1.33333 8.57733 3.42267 10.6667 6 10.6667C8.57733 10.6667 10.6667 8.57733 10.6667 6ZM12 6C12 7.41664 11.5079 8.7177 10.6868 9.74414L13.138 12.1953C13.3984 12.4557 13.3984 12.8777 13.138 13.138C12.8777 13.3984 12.4557 13.3984 12.1953 13.138L9.74414 10.6868C8.7177 11.5079 7.41664 12 6 12C2.68629 12 0 9.31371 0 6C0 2.68629 2.68629 0 6 0C9.31371 0 12 2.68629 12 6Z" fill="var(--fill-0, #9CA3AF)"/>
</svg>
