<svg preserveAspectRatio="none" width="100%" height="100%" overflow="visible" style="display: block;" viewBox="0 0 67.4044 13.9142" fill="none" xmlns="http://www.w3.org/2000/svg">
<g id="Vector">
<path d="M61.2771 13.9142C61.1032 13.9142 61.0162 13.8273 61.0162 13.6533V9.58235L58.2187 6.79533C58.17 6.73965 58.1387 6.69094 58.1248 6.64919C58.1178 6.60048 58.1143 6.54481 58.1143 6.48218V0.260957C58.1143 0.0869859 58.2013 0 58.3753 0H61.3293C61.5033 0 61.5903 0.0869859 61.5903 0.260957V6.57612H63.9285V0.260957C63.9285 0.0869859 64.0155 0 64.1894 0H67.1435C67.3174 0 67.4044 0.0869859 67.4044 0.260957V6.48218C67.4044 6.54481 67.4009 6.60048 67.394 6.64919C67.387 6.69094 67.3557 6.73965 67.3 6.79533L64.513 9.58235V13.6533C64.513 13.8273 64.426 13.9142 64.2521 13.9142H61.2771Z" fill="var(--fill-0, #1F6F43)"/>
<path d="M53.6702 13.9142C53.5102 13.9142 53.371 13.869 53.2527 13.7785L51.5513 12.2232L49.829 9.979C49.7524 9.88158 49.7037 9.82243 49.6828 9.80155C49.6619 9.77372 49.6515 9.71109 49.6515 9.61366V4.29014C49.6515 4.19271 49.6619 4.13008 49.6828 4.10225C49.7107 4.07441 49.7594 4.01526 49.829 3.9248L51.426 1.85801L53.2527 0.135698C53.3293 0.0730677 53.3884 0.0347941 53.4302 0.0208766C53.4789 0.00695902 53.5589 0 53.6702 0H56.2485C56.4225 0 56.5095 0.0869859 56.5095 0.260957V1.93108C56.5095 1.98675 56.5025 2.0459 56.4886 2.10853C56.4816 2.16421 56.4468 2.21292 56.3842 2.25467L54.4218 3.60121L53.1379 5.25046V8.66378L54.4427 10.313L56.3842 11.6491C56.4399 11.6839 56.4747 11.7257 56.4886 11.7744C56.5025 11.8231 56.5095 11.8753 56.5095 11.931V13.6533C56.5095 13.8273 56.4225 13.9142 56.2485 13.9142H53.6702Z" fill="var(--fill-0, #1F6F43)"/>
<path d="M38.6094 13.9142C38.4355 13.9142 38.3485 13.8273 38.3485 13.6533V0.260957C38.3485 0.0869859 38.4355 0 38.6094 0H44.5384C44.7054 0 44.8446 0.0556715 44.9559 0.167013L47.0436 2.25467C47.1619 2.37297 47.221 2.51215 47.221 2.6722V13.6533C47.221 13.8273 47.134 13.9142 46.9601 13.9142H44.006C43.832 13.9142 43.7451 13.8273 43.7451 13.6533V2.77659H41.8244V13.6533C41.8244 13.8273 41.7374 13.9142 41.5635 13.9142H38.6094Z" fill="var(--fill-0, #1F6F43)"/>
<path d="M26.8748 13.9142C26.7009 13.9142 26.6139 13.8273 26.6139 13.6533V3.97699C26.6139 3.88652 26.6487 3.78214 26.7183 3.66384L29.1921 0.156574C29.2687 0.0521916 29.38 0 29.5262 0H32.9812C33.1343 0 33.2457 0.0521916 33.3153 0.156574L35.7996 3.66384C35.8692 3.76126 35.9039 3.86565 35.9039 3.97699V13.6533C35.9039 13.8273 35.817 13.9142 35.643 13.9142H32.689C32.515 13.9142 32.428 13.8273 32.428 13.6533V9.21701H30.1003V13.6533C30.1003 13.8273 30.0133 13.9142 29.8393 13.9142H26.8748ZM31.2589 6.97278C31.8991 6.97278 32.3306 6.8336 32.5533 6.55525C32.7829 6.26993 32.8977 5.73062 32.8977 4.93731C32.8977 4.144 32.7829 3.60817 32.5533 3.32981C32.3306 3.0445 31.8991 2.90184 31.2589 2.90184C30.6257 2.90184 30.1942 3.0445 29.9646 3.32981C29.7419 3.60817 29.6305 4.144 29.6305 4.93731C29.6305 5.73062 29.7419 6.26993 29.9646 6.55525C30.1942 6.8336 30.6257 6.97278 31.2589 6.97278Z" fill="var(--fill-0, #1F6F43)"/>
<path d="M15.5718 13.9142C15.3978 13.9142 15.3108 13.8273 15.3108 13.6533V0.260957C15.3108 0.0869859 15.3978 0 15.5718 0H21.5007C21.6678 0 21.8069 0.0556715 21.9183 0.167013L24.0059 2.25467C24.1242 2.37297 24.1834 2.51215 24.1834 2.6722V13.6533C24.1834 13.8273 24.0964 13.9142 23.9224 13.9142H20.9684C20.7944 13.9142 20.7074 13.8273 20.7074 13.6533V2.77659H18.7868V13.6533C18.7868 13.8273 18.6998 13.9142 18.5258 13.9142H15.5718Z" fill="var(--fill-0, #1F6F43)"/>
<path d="M9.59833 13.9142C9.42436 13.9142 9.33737 13.8273 9.33737 13.6533V0.260957C9.33737 0.0869859 9.42436 0 9.59833 0H12.5524C12.7263 0 12.8133 0.0869859 12.8133 0.260957V13.6533C12.8133 13.8273 12.7263 13.9142 12.5524 13.9142H9.59833Z" fill="var(--fill-0, #1F6F43)"/>
<path d="M0.260957 13.9142C0.0869857 13.9142 0 13.8273 0 13.6533V0.260957C0 0.0869859 0.0869857 0 0.260957 0H7.41118C7.58515 0 7.67214 0.0869859 7.67214 0.260957V2.51563C7.67214 2.6896 7.58515 2.77659 7.41118 2.77659H3.47595V6.26297H6.88927C7.06324 6.26297 7.15023 6.34996 7.15023 6.52393V8.7786C7.15023 8.95257 7.06324 9.03956 6.88927 9.03956H3.47595V13.6533C3.47595 13.8273 3.38896 13.9142 3.21499 13.9142H0.260957Z" fill="var(--fill-0, #1F6F43)"/>
</g>
</svg>
