<svg preserveAspectRatio="none" width="100%" height="100%" overflow="visible" style="display: block;" viewBox="0 0 14.6667 10.6667" fill="none" xmlns="http://www.w3.org/2000/svg">
<path id="Vector" d="M7.33333 6V4.66667C7.33333 4.29848 7.63181 4 8 4C8.36819 4 8.66667 4.29848 8.66667 4.66667V6C8.66667 6.36819 8.36819 6.66667 8 6.66667C7.63181 6.66667 7.33333 6.36819 7.33333 6ZM7.33333 2V1.33333H2C1.82319 1.33333 1.65367 1.40362 1.52865 1.52865C1.40362 1.65367 1.33333 1.82319 1.33333 2V2.75195C1.79063 2.87007 2.21243 3.10826 2.55208 3.44792C3.05218 3.94801 3.33333 4.62609 3.33333 5.33333C3.33333 6.04058 3.05218 6.71865 2.55208 7.21875C2.21246 7.55837 1.79057 7.79593 1.33333 7.91406V8.66667C1.33333 8.84348 1.40362 9.013 1.52865 9.13802C1.65367 9.26305 1.82319 9.33333 2 9.33333H7.33333V8.66667C7.33333 8.29848 7.63181 8 8 8C8.36819 8 8.66667 8.29848 8.66667 8.66667V9.33333H12.6667C12.8435 9.33333 13.013 9.26305 13.138 9.13802C13.263 9.013 13.3333 8.84348 13.3333 8.66667V7.91406C12.8761 7.79593 12.4542 7.55837 12.1146 7.21875C11.6145 6.71865 11.3333 6.04058 11.3333 5.33333C11.3333 4.62609 11.6145 3.94801 12.1146 3.44792C12.4542 3.10826 12.876 2.87007 13.3333 2.75195V2C13.3333 1.82319 13.263 1.65367 13.138 1.52865C13.0286 1.41922 12.8851 1.35172 12.7324 1.33659L12.6667 1.33333H8.66667V2C8.66667 2.36819 8.36819 2.66667 8 2.66667C7.63181 2.66667 7.33333 2.36819 7.33333 2ZM14.6667 3.33333C14.6667 3.70152 14.3682 4 14 4C13.6464 4 13.3073 4.14058 13.0573 4.39063C12.8072 4.64067 12.6667 4.97971 12.6667 5.33333L12.6732 5.46484C12.7034 5.77018 12.8384 6.05718 13.0573 6.27604C13.3073 6.52609 13.6464 6.66667 14 6.66667C14.3682 6.66667 14.6667 6.96514 14.6667 7.33333V8.66667C14.6667 9.1971 14.4558 9.70566 14.0807 10.0807C13.7057 10.4558 13.1971 10.6667 12.6667 10.6667H2C1.46957 10.6667 0.96101 10.4558 0.585938 10.0807C0.210865 9.70566 0 9.1971 0 8.66667V7.33333C0 6.96514 0.298477 6.66667 0.666667 6.66667C1.02029 6.66667 1.35933 6.52609 1.60938 6.27604C1.85942 6.02599 2 5.68696 2 5.33333C2 4.97971 1.85942 4.64067 1.60938 4.39063C1.35933 4.14058 1.02029 4 0.666667 4C0.298477 4 0 3.70152 0 3.33333V2C0 1.46957 0.210865 0.96101 0.585938 0.585938C0.96101 0.210865 1.46957 0 2 0H12.6667C13.1971 0 13.7057 0.210865 14.0807 0.585938C14.4558 0.96101 14.6667 1.46957 14.6667 2V3.33333Z" fill="var(--fill-0, #DB2777)"/>
</svg>
