<svg preserveAspectRatio="none" width="100%" height="100%" overflow="visible" style="display: block;" viewBox="0 0 18.3333 18.3333" fill="none" xmlns="http://www.w3.org/2000/svg">
<path id="Vector" d="M16.6667 9.16667C16.6667 5.02453 13.3088 1.66667 9.16667 1.66667C5.02453 1.66667 1.66667 5.02453 1.66667 9.16667C1.66667 13.3088 5.02453 16.6667 9.16667 16.6667C13.3088 16.6667 16.6667 13.3088 16.6667 9.16667ZM8.33333 12.5V7.84505L6.42253 9.75586C6.09709 10.0813 5.56958 10.0813 5.24414 9.75586C4.9187 9.43042 4.9187 8.90291 5.24414 8.57747L8.57747 5.24414L8.64095 5.18717C8.96826 4.92022 9.45076 4.93904 9.75586 5.24414L13.0892 8.57747C13.4146 8.90291 13.4146 9.43042 13.0892 9.75586C12.7638 10.0813 12.2362 10.0813 11.9108 9.75586L10 7.84505V12.5C10 12.9602 9.6269 13.3333 9.16667 13.3333C8.70643 13.3333 8.33333 12.9602 8.33333 12.5ZM18.3333 9.16667C18.3333 14.2293 14.2293 18.3333 9.16667 18.3333C4.10406 18.3333 0 14.2293 0 9.16667C0 4.10406 4.10406 0 9.16667 0C14.2293 0 18.3333 4.10406 18.3333 9.16667Z" fill="var(--fill-0, #1F6F43)"/>
</svg>
