<svg preserveAspectRatio="none" width="100%" height="100%" overflow="visible" style="display: block;" viewBox="0 0 13.9974 13.9974" fill="none" xmlns="http://www.w3.org/2000/svg">
<path id="Vector" d="M0 11.9974V2.66406C3.99852e-05 2.13368 0.2109 1.62504 0.585937 1.25C0.961003 0.874974 1.4696 0.664062 2 0.664062H6.66667C7.03481 0.664062 7.33325 0.962609 7.33333 1.33073C7.33333 1.69892 7.03486 1.9974 6.66667 1.9974H2C1.82322 1.9974 1.65366 2.06773 1.52865 2.19271C1.40366 2.3177 1.33337 2.48731 1.33333 2.66406V11.9974C1.33333 12.1742 1.40367 12.3437 1.52865 12.4687C1.65367 12.5938 1.82319 12.6641 2 12.6641H11.3333C11.5101 12.6641 11.6797 12.5938 11.8047 12.4687C11.9297 12.3437 12 12.1742 12 11.9974V7.33073C12.0001 6.96261 12.2985 6.66406 12.6667 6.66406C13.0348 6.66406 13.3333 6.96261 13.3333 7.33073V11.9974C13.3333 12.5278 13.1224 13.0364 12.7474 13.4115C12.3723 13.7865 11.8638 13.9974 11.3333 13.9974H2C1.46957 13.9974 0.96101 13.7865 0.585937 13.4115C0.210912 13.0364 0 12.5278 0 11.9974ZM12.6641 2.08073C12.664 1.88252 12.5855 1.69224 12.4453 1.55208C12.3051 1.41194 12.1149 1.33333 11.9167 1.33333C11.7184 1.33333 11.5282 1.41194 11.388 1.55208L5.37956 7.56185H5.37891C5.29982 7.6408 5.24181 7.7385 5.21029 7.8457L4.82096 9.17578L6.15234 8.78711L6.23112 8.75846C6.28218 8.73629 6.33037 8.70795 6.37435 8.67383L6.43685 8.61849L12.4453 2.60937C12.5855 2.46919 12.6641 2.27895 12.6641 2.08073ZM13.9974 2.08073C13.9974 2.63258 13.7782 3.16185 13.388 3.55208L7.37956 9.56185H7.37891C7.14148 9.79901 6.84817 9.97234 6.52604 10.0664L6.52669 10.0671L4.61133 10.627H4.61068C4.43863 10.6771 4.25629 10.6799 4.08268 10.6354C3.90903 10.5909 3.75046 10.5005 3.6237 10.3737C3.49704 10.247 3.40649 10.0889 3.36198 9.91536C3.31749 9.74171 3.32025 9.55882 3.37044 9.38672H3.37109L3.93099 7.47135V7.4707C4.01371 7.18895 4.15718 6.92895 4.35091 6.70964L4.43685 6.61849L10.4453 0.609375C10.8355 0.219181 11.3648 0 11.9167 0C12.4685 0 12.9978 0.219181 13.388 0.609375C13.7782 0.99958 13.9974 1.5289 13.9974 2.08073Z" fill="var(--fill-0, #374151)"/>
</svg>
