<svg preserveAspectRatio="none" width="100%" height="100%" overflow="visible" style="display: block;" viewBox="0 0 13.3333 11.3333" fill="none" xmlns="http://www.w3.org/2000/svg">
<path id="Vector" d="M12 5.33333C12 4.96514 11.7015 4.66667 11.3333 4.66667H2C1.63181 4.66667 1.33333 4.96514 1.33333 5.33333V8C1.3335 8.36805 1.63191 8.66667 2 8.66667H11.3333C11.7014 8.66667 11.9998 8.36805 12 8V5.33333ZM3.33984 6C3.70803 6 4.00651 6.29848 4.00651 6.66667C4.00635 7.03472 3.70793 7.33333 3.33984 7.33333H3.33333C2.96524 7.33333 2.66683 7.03472 2.66667 6.66667C2.66667 6.29848 2.96514 6 3.33333 6H3.33984ZM10.0065 6C10.3747 6 10.6732 6.29848 10.6732 6.66667C10.673 7.03472 10.3746 7.33333 10.0065 7.33333H10C9.63191 7.33333 9.33349 7.03472 9.33333 6.66667C9.33333 6.29848 9.63181 6 10 6H10.0065ZM4.2513 1.33268C4.11549 1.32958 3.98184 1.36849 3.86849 1.44336C3.75523 1.51824 3.66759 1.62587 3.61719 1.75195L2.98503 3.33333H10.3437L9.71549 1.7832C9.71322 1.7776 9.7111 1.77194 9.70898 1.76628C9.66183 1.64006 9.57712 1.53113 9.4668 1.45378C9.35837 1.3778 9.22992 1.33533 9.09766 1.33268V1.33333H4.26693C4.26182 1.33333 4.2564 1.3328 4.2513 1.33268ZM13.3333 8C13.3332 8.87032 12.7762 9.60801 12 9.88281V10.6667C11.9998 11.0347 11.7014 11.3333 11.3333 11.3333C10.9652 11.3333 10.6668 11.0347 10.6667 10.6667V10H2.66667V10.6667C2.6665 11.0347 2.36809 11.3333 2 11.3333C1.63191 11.3333 1.3335 11.0347 1.33333 10.6667V9.88281C0.557134 9.60801 0.000127518 8.87032 0 8V5.33333C0 4.68144 0.312877 4.10341 0.795573 3.73828L0.195312 3.13802C-0.065037 2.87767 -0.065037 2.45501 0.195312 2.19466C0.455618 1.93455 0.877716 1.93455 1.13802 2.19466L1.75586 2.8125L2.37891 1.25651C2.5302 0.878265 2.79358 0.555316 3.13346 0.330729C3.46939 0.10884 3.86462 -0.00556531 4.26693 0.000651042V0H9.10417C9.5082 0.00401214 9.90157 0.130028 10.2324 0.361979C10.5583 0.590476 10.8079 0.911297 10.9505 1.28255L11.5729 2.81641L12.1953 2.19466C12.4556 1.93455 12.8777 1.93455 13.138 2.19466C13.3984 2.45501 13.3984 2.87767 13.138 3.13802L12.5371 3.73828C13.02 4.10339 13.3333 4.68126 13.3333 5.33333V8Z" fill="var(--fill-0, #9333EA)"/>
</svg>
