<svg preserveAspectRatio="none" width="100%" height="100%" overflow="visible" style="display: block;" viewBox="0 0 13.3333 14.6667" fill="none" xmlns="http://www.w3.org/2000/svg">
<path id="Vector" d="M2.66667 14V7.33333H2C0.898477 7.33333 0 6.43486 0 5.33333V0.666667C0 0.298477 0.298477 0 0.666667 0C1.03486 0 1.33333 0.298477 1.33333 0.666667V5.33333C1.33333 5.69848 1.63486 6 2 6H2.66667V0.666667C2.66667 0.298477 2.96514 0 3.33333 0C3.70152 0 4 0.298477 4 0.666667V6H4.66667C4.84348 6 5.013 5.92971 5.13802 5.80469C5.26305 5.67966 5.33333 5.51014 5.33333 5.33333V0.666667C5.33333 0.298477 5.63181 0 6 0C6.36819 0 6.66667 0.298477 6.66667 0.666667V5.33333C6.66667 5.86377 6.4558 6.37232 6.08073 6.7474C5.70566 7.12247 5.1971 7.33333 4.66667 7.33333H4V14C4 14.3682 3.70152 14.6667 3.33333 14.6667C2.96514 14.6667 2.66667 14.3682 2.66667 14ZM12 14V10H10.6667C9.56514 10 8.66667 9.10152 8.66667 8V4C8.66667 2.93913 9.0884 1.92202 9.83854 1.17188C10.5887 0.421729 11.6058 0 12.6667 0C12.8435 0 13.013 0.0702883 13.138 0.195313C13.263 0.320337 13.3333 0.489856 13.3333 0.666667V14C13.3333 14.3682 13.0349 14.6667 12.6667 14.6667C12.2985 14.6667 12 14.3682 12 14ZM10 8C10 8.36514 10.3015 8.66667 10.6667 8.66667H12V1.41862C11.5427 1.53673 11.1209 1.77493 10.7812 2.11458C10.2812 2.61468 10 3.29276 10 4V8Z" fill="var(--fill-0, #2563EB)"/>
</svg>
